G04 (created by PCBNEW (2013-may-18)-stable) date dom 18 oct 2015 20:31:16 CDT*
%MOIN*%
G04 Gerber Fmt 3.4, Leading zero omitted, Abs format*
%FSLAX34Y34*%
G01*
G70*
G90*
G04 APERTURE LIST*
%ADD10C,0.00590551*%
%ADD11C,0.1437*%
%ADD12R,0.0591X0.0591*%
%ADD13C,0.0591*%
%ADD14R,0.06X0.06*%
G04 APERTURE END LIST*
G54D10*
G54D11*
X31838Y-47500D03*
X27165Y-47500D03*
G54D12*
X27750Y-45000D03*
G54D13*
X28250Y-44000D03*
X28750Y-45000D03*
X29250Y-44000D03*
X29750Y-45000D03*
X30250Y-44000D03*
X30750Y-45000D03*
X31250Y-44000D03*
G54D11*
X41338Y-47500D03*
X36665Y-47500D03*
G54D12*
X37250Y-45000D03*
G54D13*
X37750Y-44000D03*
X38250Y-45000D03*
X38750Y-44000D03*
X39250Y-45000D03*
X39750Y-44000D03*
X40250Y-45000D03*
X40750Y-44000D03*
G54D11*
X50838Y-47500D03*
X46165Y-47500D03*
G54D12*
X46750Y-45000D03*
G54D13*
X47250Y-44000D03*
X47750Y-45000D03*
X48250Y-44000D03*
X48750Y-45000D03*
X49250Y-44000D03*
X49750Y-45000D03*
X50250Y-44000D03*
G54D11*
X60338Y-47500D03*
X55665Y-47500D03*
G54D12*
X56250Y-45000D03*
G54D13*
X56750Y-44000D03*
X57250Y-45000D03*
X57750Y-44000D03*
X58250Y-45000D03*
X58750Y-44000D03*
X59250Y-45000D03*
X59750Y-44000D03*
G54D11*
X69838Y-47500D03*
X65165Y-47500D03*
G54D12*
X65750Y-45000D03*
G54D13*
X66250Y-44000D03*
X66750Y-45000D03*
X67250Y-44000D03*
X67750Y-45000D03*
X68250Y-44000D03*
X68750Y-45000D03*
X69250Y-44000D03*
G54D11*
X79338Y-47500D03*
X74665Y-47500D03*
G54D12*
X75250Y-45000D03*
G54D13*
X75750Y-44000D03*
X76250Y-45000D03*
X76750Y-44000D03*
X77250Y-45000D03*
X77750Y-44000D03*
X78250Y-45000D03*
X78750Y-44000D03*
G54D14*
X50000Y-40000D03*
X76500Y-40000D03*
X31500Y-40000D03*
X40500Y-40000D03*
X27500Y-36500D03*
X29500Y-36500D03*
X57000Y-40000D03*
X66500Y-40500D03*
M02*
