G04 (created by PCBNEW (2013-may-18)-stable) date dom 18 oct 2015 20:31:16 CDT*
%MOIN*%
G04 Gerber Fmt 3.4, Leading zero omitted, Abs format*
%FSLAX34Y34*%
G01*
G70*
G90*
G04 APERTURE LIST*
%ADD10C,0.00590551*%
%ADD11C,0.005*%
%ADD12C,0.006*%
%ADD13C,0.012*%
%ADD14C,0.008*%
G04 APERTURE END LIST*
G54D10*
G54D11*
X26500Y-50600D02*
X32500Y-50600D01*
X32500Y-50600D02*
X32500Y-43500D01*
X32500Y-43500D02*
X26500Y-43500D01*
X26500Y-43500D02*
X26500Y-50600D01*
X36000Y-50600D02*
X42000Y-50600D01*
X42000Y-50600D02*
X42000Y-43500D01*
X42000Y-43500D02*
X36000Y-43500D01*
X36000Y-43500D02*
X36000Y-50600D01*
X45500Y-50600D02*
X51500Y-50600D01*
X51500Y-50600D02*
X51500Y-43500D01*
X51500Y-43500D02*
X45500Y-43500D01*
X45500Y-43500D02*
X45500Y-50600D01*
X55000Y-50600D02*
X61000Y-50600D01*
X61000Y-50600D02*
X61000Y-43500D01*
X61000Y-43500D02*
X55000Y-43500D01*
X55000Y-43500D02*
X55000Y-50600D01*
X64500Y-50600D02*
X70500Y-50600D01*
X70500Y-50600D02*
X70500Y-43500D01*
X70500Y-43500D02*
X64500Y-43500D01*
X64500Y-43500D02*
X64500Y-50600D01*
X74000Y-50600D02*
X80000Y-50600D01*
X80000Y-50600D02*
X80000Y-43500D01*
X80000Y-43500D02*
X74000Y-43500D01*
X74000Y-43500D02*
X74000Y-50600D01*
G54D12*
X50500Y-40500D02*
X49500Y-40500D01*
X49500Y-39500D02*
X50500Y-39500D01*
X49500Y-40500D02*
X49500Y-39500D01*
X50500Y-39500D02*
X50500Y-40500D01*
X77000Y-40500D02*
X76000Y-40500D01*
X76000Y-39500D02*
X77000Y-39500D01*
X76000Y-40500D02*
X76000Y-39500D01*
X77000Y-39500D02*
X77000Y-40500D01*
X32000Y-40500D02*
X31000Y-40500D01*
X31000Y-39500D02*
X32000Y-39500D01*
X31000Y-40500D02*
X31000Y-39500D01*
X32000Y-39500D02*
X32000Y-40500D01*
X41000Y-40500D02*
X40000Y-40500D01*
X40000Y-39500D02*
X41000Y-39500D01*
X40000Y-40500D02*
X40000Y-39500D01*
X41000Y-39500D02*
X41000Y-40500D01*
X28000Y-37000D02*
X27000Y-37000D01*
X27000Y-36000D02*
X28000Y-36000D01*
X27000Y-37000D02*
X27000Y-36000D01*
X28000Y-36000D02*
X28000Y-37000D01*
X30000Y-37000D02*
X29000Y-37000D01*
X29000Y-36000D02*
X30000Y-36000D01*
X29000Y-37000D02*
X29000Y-36000D01*
X30000Y-36000D02*
X30000Y-37000D01*
X57500Y-40500D02*
X56500Y-40500D01*
X56500Y-39500D02*
X57500Y-39500D01*
X56500Y-40500D02*
X56500Y-39500D01*
X57500Y-39500D02*
X57500Y-40500D01*
X67000Y-41000D02*
X66000Y-41000D01*
X66000Y-40000D02*
X67000Y-40000D01*
X66000Y-41000D02*
X66000Y-40000D01*
X67000Y-40000D02*
X67000Y-41000D01*
G54D13*
X29400Y-49042D02*
X29400Y-49471D01*
X29371Y-49557D01*
X29314Y-49614D01*
X29228Y-49642D01*
X29171Y-49642D01*
X30000Y-49642D02*
X29657Y-49642D01*
X29828Y-49642D02*
X29828Y-49042D01*
X29771Y-49128D01*
X29714Y-49185D01*
X29657Y-49214D01*
G54D14*
X29152Y-47619D02*
X29021Y-47431D01*
X28927Y-47619D02*
X28927Y-47225D01*
X29077Y-47225D01*
X29115Y-47244D01*
X29133Y-47263D01*
X29152Y-47300D01*
X29152Y-47356D01*
X29133Y-47394D01*
X29115Y-47413D01*
X29077Y-47431D01*
X28927Y-47431D01*
X29434Y-47225D02*
X29434Y-47506D01*
X29415Y-47563D01*
X29377Y-47600D01*
X29321Y-47619D01*
X29283Y-47619D01*
X29790Y-47356D02*
X29790Y-47619D01*
X29696Y-47206D02*
X29602Y-47488D01*
X29846Y-47488D01*
X30184Y-47225D02*
X29996Y-47225D01*
X29978Y-47413D01*
X29996Y-47394D01*
X30034Y-47375D01*
X30128Y-47375D01*
X30165Y-47394D01*
X30184Y-47413D01*
X30203Y-47450D01*
X30203Y-47544D01*
X30184Y-47581D01*
X30165Y-47600D01*
X30128Y-47619D01*
X30034Y-47619D01*
X29996Y-47600D01*
X29978Y-47581D01*
G54D13*
X38900Y-49042D02*
X38900Y-49471D01*
X38871Y-49557D01*
X38814Y-49614D01*
X38728Y-49642D01*
X38671Y-49642D01*
X39128Y-49042D02*
X39500Y-49042D01*
X39300Y-49271D01*
X39385Y-49271D01*
X39442Y-49300D01*
X39471Y-49328D01*
X39500Y-49385D01*
X39500Y-49528D01*
X39471Y-49585D01*
X39442Y-49614D01*
X39385Y-49642D01*
X39214Y-49642D01*
X39157Y-49614D01*
X39128Y-49585D01*
G54D14*
X38652Y-47619D02*
X38521Y-47431D01*
X38427Y-47619D02*
X38427Y-47225D01*
X38577Y-47225D01*
X38615Y-47244D01*
X38633Y-47263D01*
X38652Y-47300D01*
X38652Y-47356D01*
X38633Y-47394D01*
X38615Y-47413D01*
X38577Y-47431D01*
X38427Y-47431D01*
X38934Y-47225D02*
X38934Y-47506D01*
X38915Y-47563D01*
X38877Y-47600D01*
X38821Y-47619D01*
X38783Y-47619D01*
X39290Y-47356D02*
X39290Y-47619D01*
X39196Y-47206D02*
X39102Y-47488D01*
X39346Y-47488D01*
X39684Y-47225D02*
X39496Y-47225D01*
X39478Y-47413D01*
X39496Y-47394D01*
X39534Y-47375D01*
X39628Y-47375D01*
X39665Y-47394D01*
X39684Y-47413D01*
X39703Y-47450D01*
X39703Y-47544D01*
X39684Y-47581D01*
X39665Y-47600D01*
X39628Y-47619D01*
X39534Y-47619D01*
X39496Y-47600D01*
X39478Y-47581D01*
G54D13*
X48400Y-49042D02*
X48400Y-49471D01*
X48371Y-49557D01*
X48314Y-49614D01*
X48228Y-49642D01*
X48171Y-49642D01*
X48942Y-49042D02*
X48828Y-49042D01*
X48771Y-49071D01*
X48742Y-49100D01*
X48685Y-49185D01*
X48657Y-49300D01*
X48657Y-49528D01*
X48685Y-49585D01*
X48714Y-49614D01*
X48771Y-49642D01*
X48885Y-49642D01*
X48942Y-49614D01*
X48971Y-49585D01*
X49000Y-49528D01*
X49000Y-49385D01*
X48971Y-49328D01*
X48942Y-49300D01*
X48885Y-49271D01*
X48771Y-49271D01*
X48714Y-49300D01*
X48685Y-49328D01*
X48657Y-49385D01*
G54D14*
X48152Y-47619D02*
X48021Y-47431D01*
X47927Y-47619D02*
X47927Y-47225D01*
X48077Y-47225D01*
X48115Y-47244D01*
X48133Y-47263D01*
X48152Y-47300D01*
X48152Y-47356D01*
X48133Y-47394D01*
X48115Y-47413D01*
X48077Y-47431D01*
X47927Y-47431D01*
X48434Y-47225D02*
X48434Y-47506D01*
X48415Y-47563D01*
X48377Y-47600D01*
X48321Y-47619D01*
X48283Y-47619D01*
X48790Y-47356D02*
X48790Y-47619D01*
X48696Y-47206D02*
X48602Y-47488D01*
X48846Y-47488D01*
X49184Y-47225D02*
X48996Y-47225D01*
X48978Y-47413D01*
X48996Y-47394D01*
X49034Y-47375D01*
X49128Y-47375D01*
X49165Y-47394D01*
X49184Y-47413D01*
X49203Y-47450D01*
X49203Y-47544D01*
X49184Y-47581D01*
X49165Y-47600D01*
X49128Y-47619D01*
X49034Y-47619D01*
X48996Y-47600D01*
X48978Y-47581D01*
G54D13*
X57900Y-49042D02*
X57900Y-49471D01*
X57871Y-49557D01*
X57814Y-49614D01*
X57728Y-49642D01*
X57671Y-49642D01*
X58157Y-49100D02*
X58185Y-49071D01*
X58242Y-49042D01*
X58385Y-49042D01*
X58442Y-49071D01*
X58471Y-49100D01*
X58500Y-49157D01*
X58500Y-49214D01*
X58471Y-49300D01*
X58128Y-49642D01*
X58500Y-49642D01*
G54D14*
X57652Y-47619D02*
X57521Y-47431D01*
X57427Y-47619D02*
X57427Y-47225D01*
X57577Y-47225D01*
X57615Y-47244D01*
X57633Y-47263D01*
X57652Y-47300D01*
X57652Y-47356D01*
X57633Y-47394D01*
X57615Y-47413D01*
X57577Y-47431D01*
X57427Y-47431D01*
X57934Y-47225D02*
X57934Y-47506D01*
X57915Y-47563D01*
X57877Y-47600D01*
X57821Y-47619D01*
X57783Y-47619D01*
X58290Y-47356D02*
X58290Y-47619D01*
X58196Y-47206D02*
X58102Y-47488D01*
X58346Y-47488D01*
X58684Y-47225D02*
X58496Y-47225D01*
X58478Y-47413D01*
X58496Y-47394D01*
X58534Y-47375D01*
X58628Y-47375D01*
X58665Y-47394D01*
X58684Y-47413D01*
X58703Y-47450D01*
X58703Y-47544D01*
X58684Y-47581D01*
X58665Y-47600D01*
X58628Y-47619D01*
X58534Y-47619D01*
X58496Y-47600D01*
X58478Y-47581D01*
G54D13*
X67400Y-49042D02*
X67400Y-49471D01*
X67371Y-49557D01*
X67314Y-49614D01*
X67228Y-49642D01*
X67171Y-49642D01*
X67942Y-49242D02*
X67942Y-49642D01*
X67800Y-49014D02*
X67657Y-49442D01*
X68028Y-49442D01*
G54D14*
X67152Y-47619D02*
X67021Y-47431D01*
X66927Y-47619D02*
X66927Y-47225D01*
X67077Y-47225D01*
X67115Y-47244D01*
X67133Y-47263D01*
X67152Y-47300D01*
X67152Y-47356D01*
X67133Y-47394D01*
X67115Y-47413D01*
X67077Y-47431D01*
X66927Y-47431D01*
X67434Y-47225D02*
X67434Y-47506D01*
X67415Y-47563D01*
X67377Y-47600D01*
X67321Y-47619D01*
X67283Y-47619D01*
X67790Y-47356D02*
X67790Y-47619D01*
X67696Y-47206D02*
X67602Y-47488D01*
X67846Y-47488D01*
X68184Y-47225D02*
X67996Y-47225D01*
X67978Y-47413D01*
X67996Y-47394D01*
X68034Y-47375D01*
X68128Y-47375D01*
X68165Y-47394D01*
X68184Y-47413D01*
X68203Y-47450D01*
X68203Y-47544D01*
X68184Y-47581D01*
X68165Y-47600D01*
X68128Y-47619D01*
X68034Y-47619D01*
X67996Y-47600D01*
X67978Y-47581D01*
G54D13*
X76900Y-49042D02*
X76900Y-49471D01*
X76871Y-49557D01*
X76814Y-49614D01*
X76728Y-49642D01*
X76671Y-49642D01*
X77471Y-49042D02*
X77185Y-49042D01*
X77157Y-49328D01*
X77185Y-49300D01*
X77242Y-49271D01*
X77385Y-49271D01*
X77442Y-49300D01*
X77471Y-49328D01*
X77500Y-49385D01*
X77500Y-49528D01*
X77471Y-49585D01*
X77442Y-49614D01*
X77385Y-49642D01*
X77242Y-49642D01*
X77185Y-49614D01*
X77157Y-49585D01*
G54D14*
X76652Y-47619D02*
X76521Y-47431D01*
X76427Y-47619D02*
X76427Y-47225D01*
X76577Y-47225D01*
X76615Y-47244D01*
X76633Y-47263D01*
X76652Y-47300D01*
X76652Y-47356D01*
X76633Y-47394D01*
X76615Y-47413D01*
X76577Y-47431D01*
X76427Y-47431D01*
X76934Y-47225D02*
X76934Y-47506D01*
X76915Y-47563D01*
X76877Y-47600D01*
X76821Y-47619D01*
X76783Y-47619D01*
X77290Y-47356D02*
X77290Y-47619D01*
X77196Y-47206D02*
X77102Y-47488D01*
X77346Y-47488D01*
X77684Y-47225D02*
X77496Y-47225D01*
X77478Y-47413D01*
X77496Y-47394D01*
X77534Y-47375D01*
X77628Y-47375D01*
X77665Y-47394D01*
X77684Y-47413D01*
X77703Y-47450D01*
X77703Y-47544D01*
X77684Y-47581D01*
X77665Y-47600D01*
X77628Y-47619D01*
X77534Y-47619D01*
X77496Y-47600D01*
X77478Y-47581D01*
G54D12*
X49778Y-39371D02*
X49778Y-39071D01*
X49892Y-39071D01*
X49921Y-39085D01*
X49935Y-39100D01*
X49950Y-39128D01*
X49950Y-39171D01*
X49935Y-39200D01*
X49921Y-39214D01*
X49892Y-39228D01*
X49778Y-39228D01*
X50050Y-39071D02*
X50250Y-39071D01*
X50121Y-39371D01*
X76278Y-39371D02*
X76278Y-39071D01*
X76392Y-39071D01*
X76421Y-39085D01*
X76435Y-39100D01*
X76450Y-39128D01*
X76450Y-39171D01*
X76435Y-39200D01*
X76421Y-39214D01*
X76392Y-39228D01*
X76278Y-39228D01*
X76621Y-39200D02*
X76592Y-39185D01*
X76578Y-39171D01*
X76564Y-39142D01*
X76564Y-39128D01*
X76578Y-39100D01*
X76592Y-39085D01*
X76621Y-39071D01*
X76678Y-39071D01*
X76707Y-39085D01*
X76721Y-39100D01*
X76735Y-39128D01*
X76735Y-39142D01*
X76721Y-39171D01*
X76707Y-39185D01*
X76678Y-39200D01*
X76621Y-39200D01*
X76592Y-39214D01*
X76578Y-39228D01*
X76564Y-39257D01*
X76564Y-39314D01*
X76578Y-39342D01*
X76592Y-39357D01*
X76621Y-39371D01*
X76678Y-39371D01*
X76707Y-39357D01*
X76721Y-39342D01*
X76735Y-39314D01*
X76735Y-39257D01*
X76721Y-39228D01*
X76707Y-39214D01*
X76678Y-39200D01*
X31278Y-39371D02*
X31278Y-39071D01*
X31392Y-39071D01*
X31421Y-39085D01*
X31435Y-39100D01*
X31450Y-39128D01*
X31450Y-39171D01*
X31435Y-39200D01*
X31421Y-39214D01*
X31392Y-39228D01*
X31278Y-39228D01*
X31564Y-39100D02*
X31578Y-39085D01*
X31607Y-39071D01*
X31678Y-39071D01*
X31707Y-39085D01*
X31721Y-39100D01*
X31735Y-39128D01*
X31735Y-39157D01*
X31721Y-39200D01*
X31550Y-39371D01*
X31735Y-39371D01*
X40278Y-39371D02*
X40278Y-39071D01*
X40392Y-39071D01*
X40421Y-39085D01*
X40435Y-39100D01*
X40450Y-39128D01*
X40450Y-39171D01*
X40435Y-39200D01*
X40421Y-39214D01*
X40392Y-39228D01*
X40278Y-39228D01*
X40707Y-39171D02*
X40707Y-39371D01*
X40635Y-39057D02*
X40564Y-39271D01*
X40750Y-39271D01*
X27278Y-35871D02*
X27278Y-35571D01*
X27392Y-35571D01*
X27421Y-35585D01*
X27435Y-35600D01*
X27450Y-35628D01*
X27450Y-35671D01*
X27435Y-35700D01*
X27421Y-35714D01*
X27392Y-35728D01*
X27278Y-35728D01*
X27721Y-35571D02*
X27578Y-35571D01*
X27564Y-35714D01*
X27578Y-35700D01*
X27607Y-35685D01*
X27678Y-35685D01*
X27707Y-35700D01*
X27721Y-35714D01*
X27735Y-35742D01*
X27735Y-35814D01*
X27721Y-35842D01*
X27707Y-35857D01*
X27678Y-35871D01*
X27607Y-35871D01*
X27578Y-35857D01*
X27564Y-35842D01*
X29278Y-35871D02*
X29278Y-35571D01*
X29392Y-35571D01*
X29421Y-35585D01*
X29435Y-35600D01*
X29450Y-35628D01*
X29450Y-35671D01*
X29435Y-35700D01*
X29421Y-35714D01*
X29392Y-35728D01*
X29278Y-35728D01*
X29707Y-35571D02*
X29650Y-35571D01*
X29621Y-35585D01*
X29607Y-35600D01*
X29578Y-35642D01*
X29564Y-35700D01*
X29564Y-35814D01*
X29578Y-35842D01*
X29592Y-35857D01*
X29621Y-35871D01*
X29678Y-35871D01*
X29707Y-35857D01*
X29721Y-35842D01*
X29735Y-35814D01*
X29735Y-35742D01*
X29721Y-35714D01*
X29707Y-35700D01*
X29678Y-35685D01*
X29621Y-35685D01*
X29592Y-35700D01*
X29578Y-35714D01*
X29564Y-35742D01*
X56778Y-39371D02*
X56778Y-39071D01*
X56892Y-39071D01*
X56921Y-39085D01*
X56935Y-39100D01*
X56950Y-39128D01*
X56950Y-39171D01*
X56935Y-39200D01*
X56921Y-39214D01*
X56892Y-39228D01*
X56778Y-39228D01*
X57235Y-39371D02*
X57064Y-39371D01*
X57150Y-39371D02*
X57150Y-39071D01*
X57121Y-39114D01*
X57092Y-39142D01*
X57064Y-39157D01*
X66278Y-39871D02*
X66278Y-39571D01*
X66392Y-39571D01*
X66421Y-39585D01*
X66435Y-39600D01*
X66450Y-39628D01*
X66450Y-39671D01*
X66435Y-39700D01*
X66421Y-39714D01*
X66392Y-39728D01*
X66278Y-39728D01*
X66550Y-39571D02*
X66735Y-39571D01*
X66635Y-39685D01*
X66678Y-39685D01*
X66707Y-39700D01*
X66721Y-39714D01*
X66735Y-39742D01*
X66735Y-39814D01*
X66721Y-39842D01*
X66707Y-39857D01*
X66678Y-39871D01*
X66592Y-39871D01*
X66564Y-39857D01*
X66550Y-39842D01*
M02*
