G04 (created by PCBNEW (2013-may-18)-stable) date dom 18 oct 2015 20:31:16 CDT*
%MOIN*%
G04 Gerber Fmt 3.4, Leading zero omitted, Abs format*
%FSLAX34Y34*%
G01*
G70*
G90*
G04 APERTURE LIST*
%ADD10C,0.00590551*%
%ADD11C,0.1437*%
%ADD12R,0.0591X0.0591*%
%ADD13C,0.0591*%
%ADD14R,0.06X0.06*%
%ADD15C,0.0314961*%
G04 APERTURE END LIST*
G54D10*
G54D11*
X31838Y-47500D03*
X27165Y-47500D03*
G54D12*
X27750Y-45000D03*
G54D13*
X28250Y-44000D03*
X28750Y-45000D03*
X29250Y-44000D03*
X29750Y-45000D03*
X30250Y-44000D03*
X30750Y-45000D03*
X31250Y-44000D03*
G54D11*
X41338Y-47500D03*
X36665Y-47500D03*
G54D12*
X37250Y-45000D03*
G54D13*
X37750Y-44000D03*
X38250Y-45000D03*
X38750Y-44000D03*
X39250Y-45000D03*
X39750Y-44000D03*
X40250Y-45000D03*
X40750Y-44000D03*
G54D11*
X50838Y-47500D03*
X46165Y-47500D03*
G54D12*
X46750Y-45000D03*
G54D13*
X47250Y-44000D03*
X47750Y-45000D03*
X48250Y-44000D03*
X48750Y-45000D03*
X49250Y-44000D03*
X49750Y-45000D03*
X50250Y-44000D03*
G54D11*
X60338Y-47500D03*
X55665Y-47500D03*
G54D12*
X56250Y-45000D03*
G54D13*
X56750Y-44000D03*
X57250Y-45000D03*
X57750Y-44000D03*
X58250Y-45000D03*
X58750Y-44000D03*
X59250Y-45000D03*
X59750Y-44000D03*
G54D11*
X69838Y-47500D03*
X65165Y-47500D03*
G54D12*
X65750Y-45000D03*
G54D13*
X66250Y-44000D03*
X66750Y-45000D03*
X67250Y-44000D03*
X67750Y-45000D03*
X68250Y-44000D03*
X68750Y-45000D03*
X69250Y-44000D03*
G54D11*
X79338Y-47500D03*
X74665Y-47500D03*
G54D12*
X75250Y-45000D03*
G54D13*
X75750Y-44000D03*
X76250Y-45000D03*
X76750Y-44000D03*
X77250Y-45000D03*
X77750Y-44000D03*
X78250Y-45000D03*
X78750Y-44000D03*
G54D14*
X50000Y-40000D03*
X76500Y-40000D03*
X31500Y-40000D03*
X40500Y-40000D03*
X27500Y-36500D03*
X29500Y-36500D03*
X57000Y-40000D03*
X66500Y-40500D03*
G54D15*
X29500Y-38500D02*
X29500Y-36500D01*
X37500Y-40000D02*
X34000Y-40000D01*
X28250Y-39250D02*
X28250Y-44000D01*
X29000Y-38500D02*
X28250Y-39250D01*
X32000Y-38500D02*
X29500Y-38500D01*
X29500Y-38500D02*
X29000Y-38500D01*
X32500Y-39000D02*
X32000Y-38500D01*
X33000Y-39000D02*
X32500Y-39000D01*
X34000Y-40000D02*
X33000Y-39000D01*
X47500Y-40500D02*
X45000Y-40500D01*
X37500Y-43750D02*
X37750Y-44000D01*
X37500Y-40000D02*
X37500Y-43750D01*
X39000Y-38500D02*
X37500Y-40000D01*
X43000Y-38500D02*
X39000Y-38500D01*
X45000Y-40500D02*
X43000Y-38500D01*
X54500Y-39500D02*
X52500Y-39500D01*
X47500Y-43750D02*
X47250Y-44000D01*
X47500Y-40000D02*
X47500Y-40500D01*
X47500Y-40500D02*
X47500Y-43750D01*
X49000Y-38500D02*
X47500Y-40000D01*
X51500Y-38500D02*
X49000Y-38500D01*
X52500Y-39500D02*
X51500Y-38500D01*
X64500Y-40000D02*
X60000Y-40000D01*
X56000Y-44000D02*
X56750Y-44000D01*
X54500Y-42500D02*
X56000Y-44000D01*
X54500Y-39500D02*
X54500Y-42500D01*
X55500Y-38500D02*
X54500Y-39500D01*
X58500Y-38500D02*
X55500Y-38500D01*
X60000Y-40000D02*
X58500Y-38500D01*
X75750Y-44000D02*
X72500Y-44000D01*
X64500Y-42250D02*
X66250Y-44000D01*
X64500Y-40000D02*
X64500Y-42250D01*
X65500Y-39000D02*
X64500Y-40000D01*
X68000Y-39000D02*
X65500Y-39000D01*
X71000Y-42000D02*
X68000Y-39000D01*
X71000Y-42500D02*
X71000Y-42000D01*
X72500Y-44000D02*
X71000Y-42500D01*
X66750Y-45000D02*
X66750Y-45250D01*
X68000Y-40500D02*
X66500Y-40500D01*
X70500Y-43000D02*
X68000Y-40500D01*
X70500Y-45000D02*
X70500Y-43000D01*
X69500Y-46000D02*
X70500Y-45000D01*
X67500Y-46000D02*
X69500Y-46000D01*
X66750Y-45250D02*
X67500Y-46000D01*
X40750Y-44000D02*
X40750Y-40250D01*
X40750Y-40250D02*
X40500Y-40000D01*
X31250Y-44000D02*
X31250Y-40250D01*
X31250Y-40250D02*
X31500Y-40000D01*
X49750Y-45000D02*
X51500Y-45000D01*
X50000Y-41000D02*
X50000Y-40000D01*
X51500Y-42500D02*
X50000Y-41000D01*
X51500Y-45000D02*
X51500Y-42500D01*
X76750Y-44000D02*
X76750Y-40250D01*
X76750Y-40250D02*
X76500Y-40000D01*
X57250Y-45000D02*
X57250Y-45750D01*
X58000Y-40000D02*
X57000Y-40000D01*
X61000Y-43000D02*
X58000Y-40000D01*
X61000Y-45000D02*
X61000Y-43000D01*
X60000Y-46000D02*
X61000Y-45000D01*
X57500Y-46000D02*
X60000Y-46000D01*
X57250Y-45750D02*
X57500Y-46000D01*
X27500Y-36500D02*
X27500Y-37500D01*
X26500Y-43750D02*
X27750Y-45000D01*
X26500Y-38500D02*
X26500Y-43750D01*
X27500Y-37500D02*
X26500Y-38500D01*
X27750Y-45000D02*
X27750Y-45750D01*
X27750Y-45750D02*
X28000Y-46000D01*
X37250Y-45000D02*
X37250Y-45750D01*
X38000Y-46500D02*
X38000Y-49500D01*
X37250Y-45750D02*
X38000Y-46500D01*
X46750Y-45000D02*
X46750Y-45750D01*
X47500Y-46500D02*
X47500Y-49500D01*
X46750Y-45750D02*
X47500Y-46500D01*
X56250Y-45000D02*
X56250Y-45750D01*
X57000Y-46500D02*
X57000Y-49500D01*
X56250Y-45750D02*
X57000Y-46500D01*
X65750Y-45000D02*
X65750Y-45750D01*
X66500Y-46500D02*
X66500Y-49500D01*
X65750Y-45750D02*
X66500Y-46500D01*
X75250Y-45000D02*
X75250Y-45250D01*
X28000Y-46500D02*
X28000Y-46000D01*
X28000Y-46000D02*
X28000Y-45500D01*
X31000Y-49500D02*
X28000Y-46500D01*
X76500Y-49500D02*
X66500Y-49500D01*
X66500Y-49500D02*
X57000Y-49500D01*
X57000Y-49500D02*
X47500Y-49500D01*
X47500Y-49500D02*
X38000Y-49500D01*
X38000Y-49500D02*
X31000Y-49500D01*
X77000Y-49000D02*
X76500Y-49500D01*
X77000Y-47000D02*
X77000Y-49000D01*
X75250Y-45250D02*
X77000Y-47000D01*
M02*
