<?xml version="1.0" standalone="no"?>
 <!DOCTYPE svg PUBLIC "-//W3C//DTD SVG 1.1//EN" 
 "http://www.w3.org/Graphics/SVG/1.1/DTD/svg11.dtd"> 
<svg xmlns="http://www.w3.org/2000/svg" version="1.1" 
    width="41.9989cm" height="29.7002cm" viewBox="0 0 165350 116930 ">
<title>SVG Picture created as .kicad_pcb-F_SilkS.svg date 2015/10/17 08:09:35 </title>
  <desc>Picture generated by PCBNEW </desc>
<g style="fill:#000000; fill-opacity:1;stroke:#000000; stroke-opacity:1;
stroke-linecap:round; stroke-linejoin:round; "
 transform="translate(0 0) scale(1 1)">
</g>
<g style="fill:#000000; fill-opacity:0.0; 
stroke:#000000; stroke-width:80; stroke-opacity:1; 
stroke-linecap:round; stroke-linejoin:round;">
<path d="M67000 49500
L67200 49500
" />
<path d="M70000 49500
L69800 49500
" />
<path d="M69800 49500
L69800 49100
" />
<path d="M69800 49100
L67200 49100
" />
<path d="M67200 49100
L67200 49900
" />
<path d="M67200 49900
L69800 49900
" />
<path d="M69800 49900
L69800 49500
" />
<path d="M67200 49300
L67400 49100
" />
<path d="M73120 50250
L73120 48750
" />
</g>
<g style="fill:#000000; fill-opacity:0.0; 
stroke:#000000; stroke-width:30; stroke-opacity:1; 
stroke-linecap:round; stroke-linejoin:round;">
<circle cx="72100" cy="49500" r="707.107" /> 
</g>
<g style="fill:#000000; fill-opacity:0.0; 
stroke:#000000; stroke-width:100; stroke-opacity:1; 
stroke-linecap:round; stroke-linejoin:round;">
<path d="M73099.6 48749.5 A1250 1250 0.0 1 0 73099.6 50250.5 " />
</g>
<g style="fill:#000000; fill-opacity:0.0; 
stroke:#000000; stroke-width:60; stroke-opacity:1; 
stroke-linecap:round; stroke-linejoin:round;">
<path d="M72100 49050 A450 450 0.0 0 0 71650 49500 " />
<path d="M72100 49950 A450 450 0.0 0 0 72550 49500 " />
<path d="M72100 48850 A650 650 0.0 0 0 71450 49500 " />
<path d="M72100 50150 A650 650 0.0 0 0 72750 49500 " />
<path d="M72100 48650 A850 850 0.0 0 0 71250 49500 " />
<path d="M72100 50350 A850 850 0.0 0 0 72950 49500 " />
</g>
<g style="fill:#000000; fill-opacity:0.0; 
stroke:#000000; stroke-width:150; stroke-opacity:1; 
stroke-linecap:round; stroke-linejoin:round;">
<circle cx="76000" cy="49500" r="900" /> 
<circle cx="76000" cy="52500" r="900" /> 
</g>
<g style="fill:#000000; fill-opacity:0.0; 
stroke:#000000; stroke-width:80; stroke-opacity:1; 
stroke-linecap:round; stroke-linejoin:round;">
<path d="M68654 49772
L68488 49510
" />
<path d="M68369 49772
L68369 49222
L68559 49222
L68607 49248
L68630 49275
L68654 49327
L68654 49405
L68630 49458
L68607 49484
L68559 49510
L68369 49510
" />
</g>
<g style="fill:#000000; fill-opacity:0.0; 
stroke:#000000; stroke-width:35; stroke-opacity:1; 
stroke-linecap:round; stroke-linejoin:round;">
<path d="M71778 48121
L71778 47821
L71850 47821
L71892 47835
L71921 47864
L71935 47892
L71950 47950
L71950 47992
L71935 48050
L71921 48078
L71892 48107
L71850 48121
L71778 48121
" />
<path d="M72235 48121
L72064 48121
" />
<path d="M72150 48121
L72150 47821
L72121 47864
L72092 47892
L72064 47907
" />
<path d="M71807 51121
L71664 51121
L71664 50821
" />
<path d="M71907 50964
L72007 50964
" />
<path d="M72050 51121
L71907 51121
L71907 50821
L72050 50821
" />
<path d="M72178 51121
L72178 50821
L72250 50821
L72292 50835
L72321 50864
L72335 50892
L72350 50950
L72350 50992
L72335 51050
L72321 51078
L72292 51107
L72250 51121
L72178 51121
" />
</g>
<g style="fill:#000000; fill-opacity:0.0; 
stroke:#000000; stroke-width:100; stroke-opacity:1; 
stroke-linecap:round; stroke-linejoin:round;">
<path d="M75704 48461
L75704 48061
L75857 48061
L75895 48080
L75914 48100
L75933 48138
L75933 48195
L75914 48233
L75895 48252
L75857 48271
L75704 48271
" />
<path d="M76314 48461
L76085 48461
" />
<path d="M76200 48461
L76200 48061
L76161 48119
L76123 48157
L76085 48176
" />
<path d="M75704 51461
L75704 51061
L75857 51061
L75895 51080
L75914 51100
L75933 51138
L75933 51195
L75914 51233
L75895 51252
L75857 51271
L75704 51271
" />
<path d="M76085 51100
L76104 51080
L76142 51061
L76238 51061
L76276 51080
L76295 51100
L76314 51138
L76314 51176
L76295 51233
L76066 51461
L76314 51461
" />
</g> 
</svg>
